<?xml version="1.0" encoding="iso-8859-1"?>
<!-- Generator: Adobe Illustrator 19.0.0, SVG Export Plug-In . SVG Version: 6.00 Build 0)  -->
<svg xmlns="http://www.w3.org/2000/svg" xmlns:xlink="http://www.w3.org/1999/xlink" version="1.1" id="Capa_1" x="0px" y="0px" viewBox="0 0 512 512" style="enable-background:new 0 0 512 512;" xml:space="preserve" width="512px" height="512px">
<g>
	<g>
		<g>
			<path d="M382.901,272.845c-51.547,0-93.483,41.937-93.483,93.483c0,51.547,41.936,93.483,93.483,93.483     c13.651,0,26.814-2.879,39.122-8.557c3.762-1.735,5.403-6.191,3.669-9.952c-1.736-3.761-6.192-5.403-9.952-3.669     c-10.324,4.763-21.372,7.178-32.839,7.178c-43.275,0-78.483-35.208-78.483-78.483c0-43.275,35.208-78.483,78.483-78.483     c43.275,0,78.483,35.208,78.483,78.483c0,15.944-4.752,31.29-13.741,44.378c-2.346,3.414-1.479,8.083,1.936,10.428     c3.412,2.346,8.084,1.48,10.428-1.936c10.715-15.598,16.378-33.88,16.378-52.87C476.385,314.781,434.448,272.845,382.901,272.845     z" fill="#f72765"/>
			<path d="M382.901,324.885c-4.143,0-7.5,3.357-7.5,7.5v33.943c0,4.143,3.357,7.5,7.5,7.5h61.282c4.143,0,7.5-3.357,7.5-7.5     s-3.357-7.5-7.5-7.5h-53.782v-26.443C390.401,328.242,387.044,324.885,382.901,324.885z" fill="#f72765"/>
			<path d="M333.436,69.477v16.235c0,4.143,3.357,7.5,7.5,7.5s7.5-3.357,7.5-7.5V69.477c0-4.143-3.357-7.5-7.5-7.5     C336.794,61.977,333.436,65.334,333.436,69.477z" fill="#f72765"/>
			<path d="M137.83,69.477v16.235c0,4.143,3.357,7.5,7.5,7.5s7.5-3.357,7.5-7.5V69.477c0-4.143-3.357-7.5-7.5-7.5     C141.188,61.977,137.83,65.334,137.83,69.477z" fill="#f72765"/>
			<path d="M263.264,81.504c-5.081,5.831-12.418,9.175-20.131,9.175c-7.713,0-15.05-3.344-20.131-9.175     c-2.723-3.122-7.46-3.447-10.582-0.727c-3.122,2.722-3.448,7.459-0.727,10.582c7.931,9.1,19.39,14.319,31.439,14.319     s23.509-5.22,31.439-14.319c2.722-3.123,2.396-7.86-0.727-10.582C270.721,78.056,265.986,78.381,263.264,81.504z" fill="#f72765"/>
			<path d="M486.266,289.065V64.7c0-28.337-16.614-48.127-40.403-48.127H40.403C16.614,16.573,0,36.363,0,64.7v171.072     c0,4.142,3.357,7.5,7.5,7.5s7.5-3.358,7.5-7.5v-86.898h372.658c4.143,0,7.5-3.357,7.5-7.5s-3.357-7.5-7.5-7.5H15V64.7     c0-20.124,9.972-33.127,25.403-33.127h405.459c15.432,0,25.403,13.003,25.403,33.127v69.175h-36.473c-4.143,0-7.5,3.357-7.5,7.5     s3.357,7.5,7.5,7.5h36.473v123.427c-23.113-21.735-54.208-35.073-88.364-35.073c-38.561,0-73.221,16.999-96.897,43.891v-63.447     c0-17.429-10.404-33-26.507-39.671c-16.099-6.67-34.47-3.017-46.796,9.309l-40.681,40.682     c-5.477,5.476-8.494,12.757-8.494,20.503c0,7.745,3.017,15.026,8.494,20.503c11.305,11.305,29.7,11.303,41.005,0l14.988-14.989     v105.176c0,15.535,12.28,28.251,27.642,28.961c2.697,15.776,8.265,30.582,16.148,43.864h-231.4c-6.476,0-13.2-2.522-18.449-6.921     C17.176,421.087,15,416.707,15,414.332V282.198c0-4.143-3.357-7.5-7.5-7.5s-7.5,3.357-7.5,7.5v132.134     c0,14.802,18.022,32.679,40.403,32.679H282.2c23.68,29.496,60.02,48.416,100.701,48.416c71.186,0,129.099-57.913,129.099-129.099     C512,337.377,502.42,310.623,486.266,289.065z M253.966,372.838c-6.257-1.394-10.953-6.981-10.953-13.652V235.903     c0-3.033-1.827-5.769-4.63-6.929c-2.803-1.162-6.028-0.518-8.174,1.625l-27.792,27.792c-5.454,5.456-14.334,5.458-19.792,0     c-2.644-2.644-4.1-6.158-4.1-9.896c0-3.738,1.456-7.253,4.101-9.895l40.682-40.682c8.02-8.02,19.97-10.397,30.448-6.059     c10.477,4.341,17.247,14.474,17.247,25.813v84.323c-10.938,18.951-17.201,40.923-17.201,64.331     C253.803,368.511,253.859,370.681,253.966,372.838z M382.901,480.427c-62.914,0-114.099-51.185-114.099-114.099     s51.185-114.099,114.099-114.099C445.815,252.23,497,303.414,497,366.328S445.815,480.427,382.901,480.427z" fill="#f72765"/>
		</g>
	</g>
</g>
<g>
</g>
<g>
</g>
<g>
</g>
<g>
</g>
<g>
</g>
<g>
</g>
<g>
</g>
<g>
</g>
<g>
</g>
<g>
</g>
<g>
</g>
<g>
</g>
<g>
</g>
<g>
</g>
<g>
</g>
</svg>
