<?xml version="1.0" encoding="iso-8859-1"?>
<!-- Generator: Adobe Illustrator 19.0.0, SVG Export Plug-In . SVG Version: 6.00 Build 0)  -->
<svg xmlns="http://www.w3.org/2000/svg" xmlns:xlink="http://www.w3.org/1999/xlink" version="1.1" id="Capa_1" x="0px" y="0px" viewBox="0 0 512.001 512.001" style="enable-background:new 0 0 512.001 512.001;" xml:space="preserve" width="512px" height="512px">
<g>
	<g>
		<g>
			<path d="M504.501,85.913c4.142,0,7.5-3.357,7.5-7.5V37.002c0-16.515-13.436-29.951-29.952-29.951H150.278     c-16.515,0-29.951,13.436-29.951,29.951v76.274H29.952c-16.515,0-29.951,13.436-29.951,29.952v146.6c0,4.143,3.358,7.5,7.5,7.5     s7.5-3.357,7.5-7.5v-146.6c0-8.244,6.707-14.951,14.951-14.951h331.772c8.244,0,14.951,6.707,14.951,14.951v331.771     c0,8.245-6.707,14.952-14.951,14.952H125.187c-1.84-11.093-2.613-22.37-2.274-33.622l1.326-48.204     c0.201-7.291-2.521-14.156-7.662-19.331c-5.142-5.174-12.004-7.946-19.282-7.784l-48.625,1.027c-0.023,0-0.045,0.001-0.068,0.001     c-11.235,0.342-22.51-0.432-33.602-2.273v-40.998c0-4.143-3.358-7.5-7.5-7.5c-4.142,0-7.5,3.357-7.5,7.5v47.254     c0,65.578,53.352,118.93,118.929,118.93h242.794c16.515,0,29.951-13.436,29.951-29.952v-76.273h90.374     c16.515,0,29.952-13.436,29.952-29.951V122.18c0-4.143-3.358-7.5-7.5-7.5c-4.142,0-7.5,3.357-7.5,7.5v246.595     c0,8.244-6.707,14.951-14.952,14.951h-90.374v-115.35h50.985c4.142,0,7.5-3.357,7.5-7.5s-3.358-7.5-7.5-7.5h-50.985v-31.543     h50.985c4.142,0,7.5-3.357,7.5-7.5s-3.358-7.5-7.5-7.5h-50.985v-31.543h50.985c4.142,0,7.5-3.357,7.5-7.5s-3.358-7.5-7.5-7.5     h-50.985v-17.063c0-16.516-13.436-29.951-29.951-29.951H135.327V37.002c0-8.244,6.707-14.951,14.951-14.951h331.771     c8.244,0,14.952,6.707,14.952,14.951v41.411C497.001,82.556,500.359,85.913,504.501,85.913z M15.387,395.024     c11.12,1.67,22.395,2.344,33.633,2.009l48.592-1.027c3.143-0.072,6.105,1.127,8.325,3.361c2.22,2.233,3.395,5.197,3.308,8.346     l-1.326,48.185c-0.339,11.248,0.336,22.534,2.008,33.667C59.787,485.243,19.709,445.165,15.387,395.024z" fill="#f72765"/>
			<path d="M91.476,224.731c4.142,0,7.5-3.357,7.5-7.5v-17.8c0-4.143-3.358-7.5-7.5-7.5c-4.142,0-7.5,3.357-7.5,7.5v17.8     C83.976,221.373,87.334,224.731,91.476,224.731z" fill="#f72765"/>
			<path d="M91.476,316.613H300.2c4.142,0,7.5-3.357,7.5-7.5s-3.358-7.5-7.5-7.5H91.476c-4.142,0-7.5,3.357-7.5,7.5     S87.334,316.613,91.476,316.613z" fill="#f72765"/>
			<path d="M122.699,340.067c-4.142,0-7.5,3.357-7.5,7.5s3.358,7.5,7.5,7.5h146.278c4.142,0,7.5-3.357,7.5-7.5s-3.358-7.5-7.5-7.5     H122.699z" fill="#f72765"/>
			<path d="M233.383,230.831v-22.009c0-8.556-6.961-15.517-15.517-15.517h-44.057c-8.556,0-15.517,6.961-15.517,15.517v22.009     c0,20.702,16.843,37.545,37.545,37.545C216.541,268.376,233.383,251.533,233.383,230.831z M173.293,230.831v-22.009     c0-0.285,0.232-0.517,0.517-0.517h44.057c0.285,0,0.517,0.231,0.517,0.517v22.009c0,12.432-10.114,22.545-22.545,22.545     C183.407,253.376,173.293,243.262,173.293,230.831z" fill="#f72765"/>
			<path d="M307.7,217.231v-17.8c0-4.143-3.358-7.5-7.5-7.5c-4.142,0-7.5,3.357-7.5,7.5v17.8c0,4.143,3.358,7.5,7.5,7.5     C304.342,224.731,307.7,221.373,307.7,217.231z" fill="#f72765"/>
		</g>
	</g>
</g>
<g>
</g>
<g>
</g>
<g>
</g>
<g>
</g>
<g>
</g>
<g>
</g>
<g>
</g>
<g>
</g>
<g>
</g>
<g>
</g>
<g>
</g>
<g>
</g>
<g>
</g>
<g>
</g>
<g>
</g>
</svg>
