<?xml version="1.0" encoding="iso-8859-1"?>
<!-- Generator: Adobe Illustrator 16.0.0, SVG Export Plug-In . SVG Version: 6.00 Build 0)  -->
<!DOCTYPE svg PUBLIC "-//W3C//DTD SVG 1.1//EN" "http://www.w3.org/Graphics/SVG/1.1/DTD/svg11.dtd">
<svg xmlns="http://www.w3.org/2000/svg" xmlns:xlink="http://www.w3.org/1999/xlink" version="1.1" id="Capa_1" x="0px" y="0px" width="512px" height="512px" viewBox="0 0 43.226 43.226" style="enable-background:new 0 0 43.226 43.226;" xml:space="preserve">
<g>
	<g>
		<path d="M39.381,0h-28.86C9.148,0,8.042,1.111,8.042,2.484v0.582h0.736c2.915,0,5.287,2.357,5.287,5.272s-2.372,5.272-5.287,5.272    H8.043v2.693h0.736c2.915,0,5.287,2.395,5.287,5.31c0,2.915-2.372,5.31-5.287,5.31H8.043v2.692h0.736    c2.915,0,5.287,2.357,5.287,5.272s-2.372,5.272-5.287,5.272H8.043v0.582c0,1.373,1.105,2.483,2.479,2.483h28.86    c1.374,0,2.465-1.11,2.465-2.483V2.485C41.846,1.111,40.755,0,39.381,0z M20.253,7.03h9.398c1.037,0,1.879,0.832,1.879,1.87    s-0.842,1.869-1.879,1.869h-9.398c-1.038,0-1.88-0.832-1.88-1.869C18.374,7.862,19.214,7.03,20.253,7.03z M31.687,17.351H18.216    c-1.038,0-1.879-0.832-1.879-1.87c0-1.038,0.842-1.87,1.879-1.87h13.471c1.039,0,1.879,0.832,1.879,1.87    C33.566,16.519,32.726,17.351,31.687,17.351z" fill="#f72765"/>
		<path d="M3.845,10.844h4.934c1.362,0,2.467-1.106,2.467-2.468c0-1.362-1.105-2.468-2.467-2.468H3.845    c-1.363,0-2.467,1.105-2.467,2.468C1.378,9.739,2.482,10.844,3.845,10.844z" fill="#f72765"/>
		<path d="M3.845,24.082h4.934c1.362,0,2.467-1.106,2.467-2.468s-1.105-2.468-2.467-2.468H3.845c-1.363,0-2.467,1.106-2.467,2.468    S2.482,24.082,3.845,24.082z" fill="#f72765"/>
		<path d="M11.247,34.851c0-1.362-1.105-2.468-2.467-2.468H3.845c-1.363,0-2.467,1.105-2.467,2.468s1.104,2.468,2.467,2.468h4.934    C10.142,37.318,11.247,36.213,11.247,34.851z" fill="#f72765"/>
	</g>
</g>
<g>
</g>
<g>
</g>
<g>
</g>
<g>
</g>
<g>
</g>
<g>
</g>
<g>
</g>
<g>
</g>
<g>
</g>
<g>
</g>
<g>
</g>
<g>
</g>
<g>
</g>
<g>
</g>
<g>
</g>
</svg>
